# xmcd
# 
# Track frame offsets:
#     150
#     23185
#     43682
#     63078
#     79565
#     104407
#     130694
#     152593
#     174038
#     193255
#     211511
#     229192
# 
# Disc length: 3379
# 
# Revision: 0
# Processed by: cddbd v1.5.2PL0 Copyright (c) Steve Scherf et al.
# Submitted via: fre:ac v1.0.31
# 
DISCID=8b0d310c
DTITLE=Ramon Goose - Up Town Blues
DYEAR=2011
DGENRE=Blues
TTITLE0=Delta Moon
TTITLE1=Reality
TTITLE2=Testify
TTITLE3=Give Me Back My Wig
TTITLE4=Taste Of Honey
TTITLE5=Little Wing
TTITLE6=Say It Ain't So
TTITLE7=Uptown Shuffle
TTITLE8=Sookie Stomp
TTITLE9=Movin' On Over
TTITLE10=Reality (unplugged)
TTITLE11=Say It Ain't So (unplugged)
EXTD=
EXTT0=
EXTT1=
EXTT2=
EXTT3=
EXTT4=
EXTT5=
EXTT6=
EXTT7=
EXTT8=
EXTT9=
EXTT10=
EXTT11=
PLAYORDER=
